<?xml version="1.0" encoding="utf-8"?>
<!-- Generator: Adobe Illustrator 16.0.0, SVG Export Plug-In . SVG Version: 6.00 Build 0)  -->
<!DOCTYPE svg PUBLIC "-//W3C//DTD SVG 1.1 Tiny//EN" "http://www.w3.org/Graphics/SVG/1.1/DTD/svg11-tiny.dtd">
<svg version="1.1" baseProfile="tiny" id="Layer_1" xmlns="http://www.w3.org/2000/svg" xmlns:xlink="http://www.w3.org/1999/xlink"
	 x="0px" y="0px" width="116.19px" height="122.046px" viewBox="0 0 116.19 122.046" xml:space="preserve">
<g>
	<circle fill="#EE7660" cx="58.095" cy="63.95" r="58.095"/>
	<g>
		<path fill-rule="evenodd" fill="#FFFFFF" d="M86.455,2.007C71.135,1.706,58.526,11.146,58.29,23.092
			c-0.082,4.153,1.345,8.062,3.881,11.408l0,0c4.363,5.606-0.399,15.244-0.399,15.244l14.061-6.056
			c3.029,0.958,6.321,1.515,9.771,1.583c15.319,0.302,27.93-9.139,28.165-21.085C114.002,12.238,101.775,2.309,86.455,2.007z"/>
		<path fill="#EE7660" d="M57.57,53.731l2.408-4.873c1.166-2.376,3.546-9.363,0.615-13.13c-2.908-3.837-4.391-8.213-4.302-12.676
			C56.549,9.928,69.86-0.329,86.495,0.008c7.853,0.155,15.207,2.701,20.711,7.169c5.646,4.586,8.688,10.641,8.561,17.049
			c-0.254,12.926-13.191,23.053-29.449,23.053c-0.266-0.028-0.502-0.002-0.754-0.007c-3.303-0.065-6.533-0.555-9.613-1.457
			L57.57,53.731z M85.742,4c-13.825,0-25.244,8.582-25.453,19.131c-0.07,3.555,1.131,7.068,3.475,10.161
			c3.001,3.855,2.448,9.082,1.456,12.788l10.504-4.524l0.71,0.224c2.931,0.926,6.028,1.428,9.207,1.491
			c14.092,0.258,25.915-8.405,26.127-19.125c0.102-5.149-2.415-10.073-7.084-13.864c-4.814-3.91-11.303-6.138-18.27-6.275
			C86.191,4.002,85.965,4,85.742,4z"/>
	</g>
	<g>
		<circle fill-rule="evenodd" fill="#EE7660" cx="77.855" cy="23.794" r="3.049"/>
		<circle fill-rule="evenodd" fill="#EE7660" cx="86.563" cy="23.794" r="3.049"/>
		<circle fill-rule="evenodd" fill="#EE7660" cx="95.271" cy="23.794" r="3.049"/>
	</g>
	<g>
		<path fill="#FFFFFF" d="M29.342,70.407h4.656v5.473H23.485V55.717h-4.032v-5.473h4.032v-8.641h5.856v8.641h4.368v5.473h-4.368
			V70.407z"/>
		<path fill="#FFFFFF" d="M56.223,72.422c-1.872,2.833-4.896,4.129-8.257,4.129c-7.344,0-13.152-6.096-13.152-13.346
			c0-7.439,5.951-13.633,13.44-13.633c3.312,0,6.192,1.537,7.969,4.32v-3.648h9.168v5.473h-3.216v14.689h3.216v5.473h-9.168V72.422z
			 M56.319,62.918c0-4.225-3.505-7.633-7.729-7.633c-4.368,0-7.729,3.6-7.729,7.92c0,4.178,3.505,7.633,7.633,7.633
			C52.911,70.838,56.319,67.287,56.319,62.918z"/>
		<path fill="#FFFFFF" d="M74.702,78.087c1.008,2.16,3.504,3.169,5.76,3.169c2.016,0,4.129-0.865,5.424-2.353
			c1.633-1.921,1.777-3.552,1.777-5.952v-0.961c-1.824,2.977-4.752,4.273-8.209,4.273c-7.297,0-12.961-6.098-12.961-13.25
			c0-7.057,5.904-13.201,13.008-13.201c3.457,0,6.625,1.2,8.545,4.176v-3.744h8.689v5.473h-3.312v16.754
			c0,3.936-0.287,7.008-3.217,9.938c-2.736,2.688-6.24,3.888-10.031,3.888c-5.33,0-10.898-2.64-12.242-8.209H74.702z M80.317,70.838
			c4.416,0,7.777-3.6,7.777-7.92c0-4.272-3.553-7.729-7.824-7.729c-4.273,0-7.777,3.504-7.777,7.776
			C72.493,67.334,75.95,70.838,80.317,70.838z"/>
	</g>
</g>
</svg>
